# This file uses centimeters as units for non-parametric coordinates.

mtllib cube.mtl
g default
v 0.500000 0.500000 1.500000
v 1.500000 0.500000 1.500000
v 1.500000 1.500000 1.500000
v 0.500000 1.500000 1.500000
v 1.500000 1.500000 0.500000
v 0.500000 1.500000 0.500000
v 1.500000 0.500000 0.500000
v 0.500000 0.500000 0.500000
vt 0.375000 0.000000
vt 0.625000 0.000000
vt 0.625000 0.250000
vt 0.375000 0.250000
vt 0.625000 0.500000
vt 0.375000 0.500000
vt 0.625000 0.750000
vt 0.375000 0.750000
vt 0.625000 1.000000
vt 0.375000 1.000000
vt 0.875000 0.000000
vt 0.875000 0.250000
vt 0.125000 0.000000
vt 0.125000 0.250000
vn 0.000000 0.000000 1.000000
vn 0.000000 0.000000 1.000000
vn 0.000000 0.000000 1.000000
vn 0.000000 0.000000 1.000000
vn 0.000000 1.000000 0.000000
vn 0.000000 1.000000 0.000000
vn 0.000000 1.000000 0.000000
vn 0.000000 1.000000 0.000000
vn 0.000000 0.000000 -1.000000
vn 0.000000 0.000000 -1.000000
vn 0.000000 0.000000 -1.000000
vn 0.000000 0.000000 -1.000000
vn 0.000000 -1.000000 0.000000
vn 0.000000 -1.000000 0.000000
vn 0.000000 -1.000000 0.000000
vn 0.000000 -1.000000 0.000000
vn 1.000000 0.000000 0.000000
vn 1.000000 0.000000 0.000000
vn 1.000000 0.000000 0.000000
vn 1.000000 0.000000 0.000000
vn -1.000000 0.000000 0.000000
vn -1.000000 0.000000 0.000000
vn -1.000000 0.000000 0.000000
vn -1.000000 0.000000 0.000000
s off
g pCube1
usemtl cube_initialShadingGroup
f 1/1/1 2/2/2 3/3/3 4/4/4
f 4/4/5 3/3/6 5/5/7 6/6/8
f 6/6/9 5/5/10 7/7/11 8/8/12
f 8/8/13 7/7/14 2/9/15 1/10/16
f 2/2/17 7/11/18 5/12/19 3/3/20
f 8/13/21 1/1/22 4/4/23 6/14/24
g default
v 1.500000 -0.902113 -1.363271
v 1.190983 -0.902113 -1.587785
v 0.809017 -0.902113 -1.587785
v 0.500000 -0.902113 -1.363271
v 0.381966 -0.902113 -1.000000
v 0.500000 -0.902113 -0.636729
v 0.809017 -0.902113 -0.412215
v 1.190983 -0.902113 -0.412215
v 1.500000 -0.902113 -0.636729
v 1.618034 -0.902113 -1.000000
v 1.951056 -0.618034 -1.690983
v 1.363271 -0.618034 -2.118034
v 0.636729 -0.618034 -2.118034
v 0.048943 -0.618034 -1.690983
v -0.175570 -0.618034 -1.000000
v 0.048943 -0.618034 -0.309017
v 0.636729 -0.618034 0.118034
v 1.363271 -0.618034 0.118034
v 1.951057 -0.618034 -0.309017
v 2.175570 -0.618034 -1.000000
v 2.309017 -0.175570 -1.951057
v 1.500000 -0.175570 -2.538842
v 0.500000 -0.175570 -2.538842
v -0.309017 -0.175570 -1.951056
v -0.618034 -0.175570 -1.000000
v -0.309017 -0.175570 -0.048943
v 0.500000 -0.175570 0.538842
v 1.500000 -0.175570 0.538842
v 2.309017 -0.175570 -0.048943
v 2.618034 -0.175570 -1.000000
v 2.538842 0.381966 -2.118034
v 1.587785 0.381966 -2.809017
v 0.412215 0.381966 -2.809017
v -0.538842 0.381966 -2.118034
v -0.902113 0.381966 -1.000000
v -0.538842 0.381966 0.118034
v 0.412215 0.381966 0.809017
v 1.587785 0.381966 0.809017
v 2.538842 0.381966 0.118034
v 2.902113 0.381966 -1.000000
v 2.618034 1.000000 -2.175571
v 1.618034 1.000000 -2.902113
v 0.381966 1.000000 -2.902113
v -0.618034 1.000000 -2.175570
v -1.000000 1.000000 -1.000000
v -0.618034 1.000000 0.175571
v 0.381966 1.000000 0.902113
v 1.618034 1.000000 0.902113
v 2.618034 1.000000 0.175570
v 3.000000 1.000000 -1.000000
v 2.538842 1.618034 -2.118034
v 1.587785 1.618034 -2.809017
v 0.412215 1.618034 -2.809017
v -0.538842 1.618034 -2.118034
v -0.902113 1.618034 -1.000000
v -0.538842 1.618034 0.118034
v 0.412215 1.618034 0.809017
v 1.587785 1.618034 0.809017
v 2.538842 1.618034 0.118034
v 2.902113 1.618034 -1.000000
v 2.309017 2.175570 -1.951057
v 1.500000 2.175570 -2.538842
v 0.500000 2.175570 -2.538842
v -0.309017 2.175570 -1.951056
v -0.618034 2.175570 -1.000000
v -0.309017 2.175570 -0.048943
v 0.500000 2.175570 0.538842
v 1.500000 2.175570 0.538842
v 2.309017 2.175570 -0.048943
v 2.618034 2.175570 -1.000000
v 1.951056 2.618034 -1.690983
v 1.363271 2.618034 -2.118034
v 0.636729 2.618034 -2.118034
v 0.048943 2.618034 -1.690983
v -0.175570 2.618034 -1.000000
v 0.048943 2.618034 -0.309017
v 0.636729 2.618034 0.118034
v 1.363271 2.618034 0.118034
v 1.951057 2.618034 -0.309017
v 2.175570 2.618034 -1.000000
v 1.500000 2.902113 -1.363271
v 1.190983 2.902113 -1.587785
v 0.809017 2.902113 -1.587785
v 0.500000 2.902113 -1.363271
v 0.381966 2.902113 -1.000000
v 0.500000 2.902113 -0.636729
v 0.809017 2.902113 -0.412215
v 1.190983 2.902113 -0.412215
v 1.500000 2.902113 -0.636729
v 1.618034 2.902113 -1.000000
v 1.000000 -1.000000 -1.000000
v 1.000000 3.000000 -1.000000
vt 0.000000 0.100000
vt 0.100000 0.100000
vt 0.200000 0.100000
vt 0.300000 0.100000
vt 0.400000 0.100000
vt 0.500000 0.100000
vt 0.600000 0.100000
vt 0.700000 0.100000
vt 0.800000 0.100000
vt 0.900000 0.100000
vt 1.000000 0.100000
vt 0.000000 0.200000
vt 0.100000 0.200000
vt 0.200000 0.200000
vt 0.300000 0.200000
vt 0.400000 0.200000
vt 0.500000 0.200000
vt 0.600000 0.200000
vt 0.700000 0.200000
vt 0.800000 0.200000
vt 0.900000 0.200000
vt 1.000000 0.200000
vt 0.000000 0.300000
vt 0.100000 0.300000
vt 0.200000 0.300000
vt 0.300000 0.300000
vt 0.400000 0.300000
vt 0.500000 0.300000
vt 0.600000 0.300000
vt 0.700000 0.300000
vt 0.800000 0.300000
vt 0.900000 0.300000
vt 1.000000 0.300000
vt 0.000000 0.400000
vt 0.100000 0.400000
vt 0.200000 0.400000
vt 0.300000 0.400000
vt 0.400000 0.400000
vt 0.500000 0.400000
vt 0.600000 0.400000
vt 0.700000 0.400000
vt 0.800000 0.400000
vt 0.900000 0.400000
vt 1.000000 0.400000
vt 0.000000 0.500000
vt 0.100000 0.500000
vt 0.200000 0.500000
vt 0.300000 0.500000
vt 0.400000 0.500000
vt 0.500000 0.500000
vt 0.600000 0.500000
vt 0.700000 0.500000
vt 0.800000 0.500000
vt 0.900000 0.500000
vt 1.000000 0.500000
vt 0.000000 0.600000
vt 0.100000 0.600000
vt 0.200000 0.600000
vt 0.300000 0.600000
vt 0.400000 0.600000
vt 0.500000 0.600000
vt 0.600000 0.600000
vt 0.700000 0.600000
vt 0.800000 0.600000
vt 0.900000 0.600000
vt 1.000000 0.600000
vt 0.000000 0.700000
vt 0.100000 0.700000
vt 0.200000 0.700000
vt 0.300000 0.700000
vt 0.400000 0.700000
vt 0.500000 0.700000
vt 0.600000 0.700000
vt 0.700000 0.700000
vt 0.800000 0.700000
vt 0.900000 0.700000
vt 1.000000 0.700000
vt 0.000000 0.800000
vt 0.100000 0.800000
vt 0.200000 0.800000
vt 0.300000 0.800000
vt 0.400000 0.800000
vt 0.500000 0.800000
vt 0.600000 0.800000
vt 0.700000 0.800000
vt 0.800000 0.800000
vt 0.900000 0.800000
vt 1.000000 0.800000
vt 0.000000 0.900000
vt 0.100000 0.900000
vt 0.200000 0.900000
vt 0.300000 0.900000
vt 0.400000 0.900000
vt 0.500000 0.900000
vt 0.600000 0.900000
vt 0.700000 0.900000
vt 0.800000 0.900000
vt 0.900000 0.900000
vt 1.000000 0.900000
vt 0.050000 0.000000
vt 0.150000 0.000000
vt 0.250000 0.000000
vt 0.350000 0.000000
vt 0.450000 0.000000
vt 0.550000 0.000000
vt 0.650000 0.000000
vt 0.750000 0.000000
vt 0.850000 0.000000
vt 0.950000 0.000000
vt 0.050000 1.000000
vt 0.150000 1.000000
vt 0.250000 1.000000
vt 0.350000 1.000000
vt 0.450000 1.000000
vt 0.550000 1.000000
vt 0.650000 1.000000
vt 0.750000 1.000000
vt 0.850000 1.000000
vt 0.950000 1.000000
vn 0.277578 -0.881468 -0.382053
vn 0.277578 -0.881468 -0.382053
vn 0.277578 -0.881468 -0.382053
vn 0.277578 -0.881468 -0.382053
vn -0.000000 -0.881468 -0.472244
vn -0.000000 -0.881468 -0.472244
vn -0.000000 -0.881468 -0.472244
vn -0.000000 -0.881468 -0.472244
vn -0.277578 -0.881468 -0.382053
vn -0.277578 -0.881468 -0.382053
vn -0.277578 -0.881468 -0.382053
vn -0.277578 -0.881468 -0.382053
vn -0.449130 -0.881468 -0.145931
vn -0.449130 -0.881468 -0.145931
vn -0.449130 -0.881468 -0.145931
vn -0.449130 -0.881468 -0.145931
vn -0.449130 -0.881468 0.145931
vn -0.449130 -0.881468 0.145931
vn -0.449130 -0.881468 0.145931
vn -0.449130 -0.881468 0.145931
vn -0.277578 -0.881468 0.382053
vn -0.277578 -0.881468 0.382053
vn -0.277578 -0.881468 0.382053
vn -0.277578 -0.881468 0.382053
vn 0.000000 -0.881468 0.472244
vn 0.000000 -0.881468 0.472244
vn 0.000000 -0.881468 0.472244
vn 0.000000 -0.881468 0.472244
vn 0.277578 -0.881468 0.382053
vn 0.277578 -0.881468 0.382053
vn 0.277578 -0.881468 0.382053
vn 0.277578 -0.881468 0.382053
vn 0.449131 -0.881468 0.145931
vn 0.449131 -0.881468 0.145931
vn 0.449131 -0.881468 0.145931
vn 0.449131 -0.881468 0.145931
vn 0.449130 -0.881468 -0.145931
vn 0.449130 -0.881468 -0.145931
vn 0.449130 -0.881468 -0.145931
vn 0.449130 -0.881468 -0.145931
vn 0.425919 -0.689152 -0.586228
vn 0.425919 -0.689152 -0.586228
vn 0.425919 -0.689152 -0.586228
vn 0.425919 -0.689152 -0.586228
vn -0.000000 -0.689152 -0.724617
vn -0.000000 -0.689152 -0.724617
vn -0.000000 -0.689152 -0.724617
vn -0.000000 -0.689152 -0.724617
vn -0.425919 -0.689152 -0.586228
vn -0.425919 -0.689152 -0.586228
vn -0.425919 -0.689152 -0.586228
vn -0.425919 -0.689152 -0.586228
vn -0.689152 -0.689152 -0.223919
vn -0.689152 -0.689152 -0.223919
vn -0.689152 -0.689152 -0.223919
vn -0.689152 -0.689152 -0.223919
vn -0.689152 -0.689152 0.223919
vn -0.689152 -0.689152 0.223919
vn -0.689152 -0.689152 0.223919
vn -0.689152 -0.689152 0.223919
vn -0.425919 -0.689152 0.586227
vn -0.425919 -0.689152 0.586227
vn -0.425919 -0.689152 0.586227
vn -0.425919 -0.689152 0.586227
vn 0.000000 -0.689152 0.724617
vn 0.000000 -0.689152 0.724617
vn 0.000000 -0.689152 0.724617
vn 0.000000 -0.689152 0.724617
vn 0.425919 -0.689152 0.586227
vn 0.425919 -0.689152 0.586227
vn 0.425919 -0.689152 0.586227
vn 0.425919 -0.689152 0.586227
vn 0.689152 -0.689152 0.223919
vn 0.689152 -0.689152 0.223919
vn 0.689152 -0.689152 0.223919
vn 0.689152 -0.689152 0.223919
vn 0.689152 -0.689152 -0.223919
vn 0.689152 -0.689152 -0.223919
vn 0.689152 -0.689152 -0.223919
vn 0.689152 -0.689152 -0.223919
vn 0.528952 -0.436083 -0.728040
vn 0.528952 -0.436083 -0.728040
vn 0.528952 -0.436083 -0.728040
vn 0.528952 -0.436083 -0.728040
vn -0.000000 -0.436083 -0.899906
vn -0.000000 -0.436083 -0.899906
vn -0.000000 -0.436083 -0.899906
vn -0.000000 -0.436083 -0.899906
vn -0.528952 -0.436083 -0.728039
vn -0.528952 -0.436083 -0.728039
vn -0.528952 -0.436083 -0.728039
vn -0.528952 -0.436083 -0.728039
vn -0.855862 -0.436083 -0.278086
vn -0.855862 -0.436083 -0.278086
vn -0.855862 -0.436083 -0.278086
vn -0.855862 -0.436083 -0.278086
vn -0.855862 -0.436083 0.278086
vn -0.855862 -0.436083 0.278086
vn -0.855862 -0.436083 0.278086
vn -0.855862 -0.436083 0.278086
vn -0.528952 -0.436083 0.728040
vn -0.528952 -0.436083 0.728040
vn -0.528952 -0.436083 0.728040
vn -0.528952 -0.436083 0.728040
vn 0.000000 -0.436083 0.899906
vn 0.000000 -0.436083 0.899906
vn 0.000000 -0.436083 0.899906
vn 0.000000 -0.436083 0.899906
vn 0.528952 -0.436083 0.728040
vn 0.528952 -0.436083 0.728040
vn 0.528952 -0.436083 0.728040
vn 0.528952 -0.436083 0.728040
vn 0.855862 -0.436083 0.278086
vn 0.855862 -0.436083 0.278086
vn 0.855862 -0.436083 0.278086
vn 0.855862 -0.436083 0.278086
vn 0.855862 -0.436083 -0.278086
vn 0.855862 -0.436083 -0.278086
vn 0.855862 -0.436083 -0.278086
vn 0.855862 -0.436083 -0.278086
vn 0.581228 -0.148952 -0.799992
vn 0.581228 -0.148952 -0.799992
vn 0.581228 -0.148952 -0.799992
vn 0.581228 -0.148952 -0.799992
vn 0.000000 -0.148952 -0.988844
vn 0.000000 -0.148952 -0.988844
vn 0.000000 -0.148952 -0.988844
vn 0.000000 -0.148952 -0.988844
vn -0.581228 -0.148952 -0.799992
vn -0.581228 -0.148952 -0.799992
vn -0.581228 -0.148952 -0.799992
vn -0.581228 -0.148952 -0.799992
vn -0.940447 -0.148952 -0.305570
vn -0.940447 -0.148952 -0.305570
vn -0.940447 -0.148952 -0.305570
vn -0.940447 -0.148952 -0.305570
vn -0.940447 -0.148952 0.305570
vn -0.940447 -0.148952 0.305570
vn -0.940447 -0.148952 0.305570
vn -0.940447 -0.148952 0.305570
vn -0.581228 -0.148952 0.799992
vn -0.581228 -0.148952 0.799992
vn -0.581228 -0.148952 0.799992
vn -0.581228 -0.148952 0.799992
vn 0.000000 -0.148952 0.988844
vn 0.000000 -0.148952 0.988844
vn 0.000000 -0.148952 0.988844
vn 0.000000 -0.148952 0.988844
vn 0.581228 -0.148952 0.799992
vn 0.581228 -0.148952 0.799992
vn 0.581228 -0.148952 0.799992
vn 0.581228 -0.148952 0.799992
vn 0.940447 -0.148952 0.305570
vn 0.940447 -0.148952 0.305570
vn 0.940447 -0.148952 0.305570
vn 0.940447 -0.148952 0.305570
vn 0.940447 -0.148952 -0.305570
vn 0.940447 -0.148952 -0.305570
vn 0.940447 -0.148952 -0.305570
vn 0.940447 -0.148952 -0.305570
vn 0.581228 0.148952 -0.799992
vn 0.581228 0.148952 -0.799992
vn 0.581228 0.148952 -0.799992
vn 0.581228 0.148952 -0.799992
vn 0.000000 0.148952 -0.988844
vn 0.000000 0.148952 -0.988844
vn 0.000000 0.148952 -0.988844
vn 0.000000 0.148952 -0.988844
vn -0.581228 0.148952 -0.799992
vn -0.581228 0.148952 -0.799992
vn -0.581228 0.148952 -0.799992
vn -0.581228 0.148952 -0.799992
vn -0.940447 0.148952 -0.305570
vn -0.940447 0.148952 -0.305570
vn -0.940447 0.148952 -0.305570
vn -0.940447 0.148952 -0.305570
vn -0.940447 0.148952 0.305570
vn -0.940447 0.148952 0.305570
vn -0.940447 0.148952 0.305570
vn -0.940447 0.148952 0.305570
vn -0.581228 0.148952 0.799992
vn -0.581228 0.148952 0.799992
vn -0.581228 0.148952 0.799992
vn -0.581228 0.148952 0.799992
vn 0.000000 0.148952 0.988844
vn 0.000000 0.148952 0.988844
vn 0.000000 0.148952 0.988844
vn 0.000000 0.148952 0.988844
vn 0.581228 0.148952 0.799992
vn 0.581228 0.148952 0.799992
vn 0.581228 0.148952 0.799992
vn 0.581228 0.148952 0.799992
vn 0.940447 0.148952 0.305570
vn 0.940447 0.148952 0.305570
vn 0.940447 0.148952 0.305570
vn 0.940447 0.148952 0.305570
vn 0.940447 0.148952 -0.305570
vn 0.940447 0.148952 -0.305570
vn 0.940447 0.148952 -0.305570
vn 0.940447 0.148952 -0.305570
vn 0.528952 0.436083 -0.728040
vn 0.528952 0.436083 -0.728040
vn 0.528952 0.436083 -0.728040
vn 0.528952 0.436083 -0.728040
vn -0.000000 0.436083 -0.899906
vn -0.000000 0.436083 -0.899906
vn -0.000000 0.436083 -0.899906
vn -0.000000 0.436083 -0.899906
vn -0.528952 0.436083 -0.728040
vn -0.528952 0.436083 -0.728040
vn -0.528952 0.436083 -0.728040
vn -0.528952 0.436083 -0.728040
vn -0.855862 0.436083 -0.278086
vn -0.855862 0.436083 -0.278086
vn -0.855862 0.436083 -0.278086
vn -0.855862 0.436083 -0.278086
vn -0.855862 0.436083 0.278086
vn -0.855862 0.436083 0.278086
vn -0.855862 0.436083 0.278086
vn -0.855862 0.436083 0.278086
vn -0.528952 0.436083 0.728040
vn -0.528952 0.436083 0.728040
vn -0.528952 0.436083 0.728040
vn -0.528952 0.436083 0.728040
vn 0.000000 0.436083 0.899906
vn 0.000000 0.436083 0.899906
vn 0.000000 0.436083 0.899906
vn 0.000000 0.436083 0.899906
vn 0.528952 0.436083 0.728040
vn 0.528952 0.436083 0.728040
vn 0.528952 0.436083 0.728040
vn 0.528952 0.436083 0.728040
vn 0.855862 0.436083 0.278086
vn 0.855862 0.436083 0.278086
vn 0.855862 0.436083 0.278086
vn 0.855862 0.436083 0.278086
vn 0.855862 0.436083 -0.278086
vn 0.855862 0.436083 -0.278086
vn 0.855862 0.436083 -0.278086
vn 0.855862 0.436083 -0.278086
vn 0.425919 0.689152 -0.586228
vn 0.425919 0.689152 -0.586228
vn 0.425919 0.689152 -0.586228
vn 0.425919 0.689152 -0.586228
vn -0.000000 0.689152 -0.724617
vn -0.000000 0.689152 -0.724617
vn -0.000000 0.689152 -0.724617
vn -0.000000 0.689152 -0.724617
vn -0.425919 0.689152 -0.586228
vn -0.425919 0.689152 -0.586228
vn -0.425919 0.689152 -0.586228
vn -0.425919 0.689152 -0.586228
vn -0.689152 0.689152 -0.223919
vn -0.689152 0.689152 -0.223919
vn -0.689152 0.689152 -0.223919
vn -0.689152 0.689152 -0.223919
vn -0.689152 0.689152 0.223919
vn -0.689152 0.689152 0.223919
vn -0.689152 0.689152 0.223919
vn -0.689152 0.689152 0.223919
vn -0.425919 0.689152 0.586228
vn -0.425919 0.689152 0.586228
vn -0.425919 0.689152 0.586228
vn -0.425919 0.689152 0.586228
vn 0.000000 0.689152 0.724617
vn 0.000000 0.689152 0.724617
vn 0.000000 0.689152 0.724617
vn 0.000000 0.689152 0.724617
vn 0.425919 0.689152 0.586227
vn 0.425919 0.689152 0.586227
vn 0.425919 0.689152 0.586227
vn 0.425919 0.689152 0.586227
vn 0.689152 0.689152 0.223919
vn 0.689152 0.689152 0.223919
vn 0.689152 0.689152 0.223919
vn 0.689152 0.689152 0.223919
vn 0.689152 0.689152 -0.223919
vn 0.689152 0.689152 -0.223919
vn 0.689152 0.689152 -0.223919
vn 0.689152 0.689152 -0.223919
vn 0.277578 0.881468 -0.382053
vn 0.277578 0.881468 -0.382053
vn 0.277578 0.881468 -0.382053
vn 0.277578 0.881468 -0.382053
vn -0.000000 0.881468 -0.472244
vn -0.000000 0.881468 -0.472244
vn -0.000000 0.881468 -0.472244
vn -0.000000 0.881468 -0.472244
vn -0.277578 0.881468 -0.382053
vn -0.277578 0.881468 -0.382053
vn -0.277578 0.881468 -0.382053
vn -0.277578 0.881468 -0.382053
vn -0.449130 0.881468 -0.145931
vn -0.449130 0.881468 -0.145931
vn -0.449130 0.881468 -0.145931
vn -0.449130 0.881468 -0.145931
vn -0.449130 0.881468 0.145931
vn -0.449130 0.881468 0.145931
vn -0.449130 0.881468 0.145931
vn -0.449130 0.881468 0.145931
vn -0.277578 0.881468 0.382053
vn -0.277578 0.881468 0.382053
vn -0.277578 0.881468 0.382053
vn -0.277578 0.881468 0.382053
vn 0.000000 0.881468 0.472244
vn 0.000000 0.881468 0.472244
vn 0.000000 0.881468 0.472244
vn 0.000000 0.881468 0.472244
vn 0.277578 0.881468 0.382053
vn 0.277578 0.881468 0.382053
vn 0.277578 0.881468 0.382053
vn 0.277578 0.881468 0.382053
vn 0.449131 0.881468 0.145931
vn 0.449131 0.881468 0.145931
vn 0.449131 0.881468 0.145931
vn 0.449131 0.881468 0.145931
vn 0.449130 0.881468 -0.145932
vn 0.449130 0.881468 -0.145932
vn 0.449130 0.881468 -0.145932
vn 0.449130 0.881468 -0.145932
vn 0.096557 -0.986415 -0.132899
vn 0.096557 -0.986415 -0.132899
vn 0.096557 -0.986415 -0.132899
vn -0.000000 -0.986415 -0.164272
vn -0.000000 -0.986415 -0.164272
vn -0.000000 -0.986415 -0.164272
vn -0.096557 -0.986415 -0.132899
vn -0.096557 -0.986415 -0.132899
vn -0.096557 -0.986415 -0.132899
vn -0.156233 -0.986415 -0.050763
vn -0.156233 -0.986415 -0.050763
vn -0.156233 -0.986415 -0.050763
vn -0.156233 -0.986415 0.050763
vn -0.156233 -0.986415 0.050763
vn -0.156233 -0.986415 0.050763
vn -0.096557 -0.986415 0.132899
vn -0.096557 -0.986415 0.132899
vn -0.096557 -0.986415 0.132899
vn 0.000000 -0.986415 0.164272
vn 0.000000 -0.986415 0.164272
vn 0.000000 -0.986415 0.164272
vn 0.096557 -0.986415 0.132899
vn 0.096557 -0.986415 0.132899
vn 0.096557 -0.986415 0.132899
vn 0.156233 -0.986415 0.050763
vn 0.156233 -0.986415 0.050763
vn 0.156233 -0.986415 0.050763
vn 0.156233 -0.986415 -0.050763
vn 0.156233 -0.986415 -0.050763
vn 0.156233 -0.986415 -0.050763
vn 0.096557 0.986415 -0.132899
vn 0.096557 0.986415 -0.132899
vn 0.096557 0.986415 -0.132899
vn -0.000000 0.986415 -0.164272
vn -0.000000 0.986415 -0.164272
vn -0.000000 0.986415 -0.164272
vn -0.096557 0.986415 -0.132899
vn -0.096557 0.986415 -0.132899
vn -0.096557 0.986415 -0.132899
vn -0.156233 0.986415 -0.050763
vn -0.156233 0.986415 -0.050763
vn -0.156233 0.986415 -0.050763
vn -0.156233 0.986415 0.050763
vn -0.156233 0.986415 0.050763
vn -0.156233 0.986415 0.050763
vn -0.096557 0.986415 0.132899
vn -0.096557 0.986415 0.132899
vn -0.096557 0.986415 0.132899
vn 0.000000 0.986415 0.164272
vn 0.000000 0.986415 0.164272
vn 0.000000 0.986415 0.164272
vn 0.096557 0.986415 0.132899
vn 0.096557 0.986415 0.132899
vn 0.096557 0.986415 0.132899
vn 0.156233 0.986415 0.050763
vn 0.156233 0.986415 0.050763
vn 0.156233 0.986415 0.050763
vn 0.156233 0.986415 -0.050763
vn 0.156233 0.986415 -0.050763
vn 0.156233 0.986415 -0.050763
s off
g pSphere1
usemtl initialShadingGroup
f 9/15/25 10/16/26 20/27/27 19/26/28
f 10/16/29 11/17/30 21/28/31 20/27/32
f 11/17/33 12/18/34 22/29/35 21/28/36
f 12/18/37 13/19/38 23/30/39 22/29/40
f 13/19/41 14/20/42 24/31/43 23/30/44
f 14/20/45 15/21/46 25/32/47 24/31/48
f 15/21/49 16/22/50 26/33/51 25/32/52
f 16/22/53 17/23/54 27/34/55 26/33/56
f 17/23/57 18/24/58 28/35/59 27/34/60
f 18/24/61 9/25/62 19/36/63 28/35/64
f 19/26/65 20/27/66 30/38/67 29/37/68
f 20/27/69 21/28/70 31/39/71 30/38/72
f 21/28/73 22/29/74 32/40/75 31/39/76
f 22/29/77 23/30/78 33/41/79 32/40/80
f 23/30/81 24/31/82 34/42/83 33/41/84
f 24/31/85 25/32/86 35/43/87 34/42/88
f 25/32/89 26/33/90 36/44/91 35/43/92
f 26/33/93 27/34/94 37/45/95 36/44/96
f 27/34/97 28/35/98 38/46/99 37/45/100
f 28/35/101 19/36/102 29/47/103 38/46/104
f 29/37/105 30/38/106 40/49/107 39/48/108
f 30/38/109 31/39/110 41/50/111 40/49/112
f 31/39/113 32/40/114 42/51/115 41/50/116
f 32/40/117 33/41/118 43/52/119 42/51/120
f 33/41/121 34/42/122 44/53/123 43/52/124
f 34/42/125 35/43/126 45/54/127 44/53/128
f 35/43/129 36/44/130 46/55/131 45/54/132
f 36/44/133 37/45/134 47/56/135 46/55/136
f 37/45/137 38/46/138 48/57/139 47/56/140
f 38/46/141 29/47/142 39/58/143 48/57/144
f 39/48/145 40/49/146 50/60/147 49/59/148
f 40/49/149 41/50/150 51/61/151 50/60/152
f 41/50/153 42/51/154 52/62/155 51/61/156
f 42/51/157 43/52/158 53/63/159 52/62/160
f 43/52/161 44/53/162 54/64/163 53/63/164
f 44/53/165 45/54/166 55/65/167 54/64/168
f 45/54/169 46/55/170 56/66/171 55/65/172
f 46/55/173 47/56/174 57/67/175 56/66/176
f 47/56/177 48/57/178 58/68/179 57/67/180
f 48/57/181 39/58/182 49/69/183 58/68/184
f 49/59/185 50/60/186 60/71/187 59/70/188
f 50/60/189 51/61/190 61/72/191 60/71/192
f 51/61/193 52/62/194 62/73/195 61/72/196
f 52/62/197 53/63/198 63/74/199 62/73/200
f 53/63/201 54/64/202 64/75/203 63/74/204
f 54/64/205 55/65/206 65/76/207 64/75/208
f 55/65/209 56/66/210 66/77/211 65/76/212
f 56/66/213 57/67/214 67/78/215 66/77/216
f 57/67/217 58/68/218 68/79/219 67/78/220
f 58/68/221 49/69/222 59/80/223 68/79/224
f 59/70/225 60/71/226 70/82/227 69/81/228
f 60/71/229 61/72/230 71/83/231 70/82/232
f 61/72/233 62/73/234 72/84/235 71/83/236
f 62/73/237 63/74/238 73/85/239 72/84/240
f 63/74/241 64/75/242 74/86/243 73/85/244
f 64/75/245 65/76/246 75/87/247 74/86/248
f 65/76/249 66/77/250 76/88/251 75/87/252
f 66/77/253 67/78/254 77/89/255 76/88/256
f 67/78/257 68/79/258 78/90/259 77/89/260
f 68/79/261 59/80/262 69/91/263 78/90/264
f 69/81/265 70/82/266 80/93/267 79/92/268
f 70/82/269 71/83/270 81/94/271 80/93/272
f 71/83/273 72/84/274 82/95/275 81/94/276
f 72/84/277 73/85/278 83/96/279 82/95/280
f 73/85/281 74/86/282 84/97/283 83/96/284
f 74/86/285 75/87/286 85/98/287 84/97/288
f 75/87/289 76/88/290 86/99/291 85/98/292
f 76/88/293 77/89/294 87/100/295 86/99/296
f 77/89/297 78/90/298 88/101/299 87/100/300
f 78/90/301 69/91/302 79/102/303 88/101/304
f 79/92/305 80/93/306 90/104/307 89/103/308
f 80/93/309 81/94/310 91/105/311 90/104/312
f 81/94/313 82/95/314 92/106/315 91/105/316
f 82/95/317 83/96/318 93/107/319 92/106/320
f 83/96/321 84/97/322 94/108/323 93/107/324
f 84/97/325 85/98/326 95/109/327 94/108/328
f 85/98/329 86/99/330 96/110/331 95/109/332
f 86/99/333 87/100/334 97/111/335 96/110/336
f 87/100/337 88/101/338 98/112/339 97/111/340
f 88/101/341 79/102/342 89/113/343 98/112/344
f 10/16/345 9/15/346 99/114/347
f 11/17/348 10/16/349 99/115/350
f 12/18/351 11/17/352 99/116/353
f 13/19/354 12/18/355 99/117/356
f 14/20/357 13/19/358 99/118/359
f 15/21/360 14/20/361 99/119/362
f 16/22/363 15/21/364 99/120/365
f 17/23/366 16/22/367 99/121/368
f 18/24/369 17/23/370 99/122/371
f 9/25/372 18/24/373 99/123/374
f 89/103/375 90/104/376 100/124/377
f 90/104/378 91/105/379 100/125/380
f 91/105/381 92/106/382 100/126/383
f 92/106/384 93/107/385 100/127/386
f 93/107/387 94/108/388 100/128/389
f 94/108/390 95/109/391 100/129/392
f 95/109/393 96/110/394 100/130/395
f 96/110/396 97/111/397 100/131/398
f 97/111/399 98/112/400 100/132/401
f 98/112/402 89/113/403 100/133/404
